<svg width="62" height="73" viewBox="0 0 62 73" fill="none" xmlns="http://www.w3.org/2000/svg">
<g clip-path="url(#clip0_862_17566)">
<path d="M16.0566 27.2172C27.8095 20.5605 39.5625 13.9037 51.3154 7.24699C54.6478 5.3568 57.9951 3.48156 61.3051 1.54655C61.7609 1.28506 62.1344 0.739671 61.5666 0.388529C60.9987 0.0373883 59.9975 0.373587 59.467 0.66496C47.6244 7.17228 35.9238 13.956 24.1708 20.6128L14.1438 26.2908C13.6657 26.5598 13.2846 27.1425 13.8749 27.5011C14.4651 27.8597 15.5186 27.5235 16.0715 27.2097L16.0566 27.2172Z" fill="#F69F1E"/>
<path d="M59.1084 1.21811C58.9066 16.8402 58.5555 32.4622 58.0474 48.0768C57.9054 52.537 57.7411 56.9973 57.5767 61.4575C57.5319 62.6379 60.4234 62.0552 60.4608 61.0989C61.0585 45.4843 61.4993 29.8697 61.7907 14.2477C61.8729 9.78745 61.9402 5.31974 61.9999 0.859499C62.0149 -0.328404 59.1233 0.269283 59.1159 1.21811H59.1084Z" fill="#F69F1E"/>
<path d="M13.7331 27.1717C26.0016 35.4721 37.1494 45.2592 48.4466 54.7998C51.6146 57.4744 54.805 60.1342 58.0327 62.7416C58.5483 63.16 59.3776 63.018 59.9455 62.7715C60.2294 62.6519 61.2306 62.0318 60.7151 61.6134C49.1041 52.2297 38.046 42.1587 26.181 33.0888C22.8635 30.5561 19.4863 28.1056 16.027 25.7672C15.2499 25.2442 12.5825 26.3873 13.7331 27.1642V27.1717Z" fill="#F69F1E"/>
<path d="M58.9134 0.791096C50.4629 10.1598 42.1619 19.6631 34.0103 29.2858C31.6866 32.0277 29.3779 34.7845 27.0766 37.5488C26.6283 38.0868 27.4576 38.3781 27.8611 38.4006C28.5485 38.4379 29.3256 38.1465 29.7664 37.6161C37.8358 27.9186 46.0472 18.3407 54.4155 8.89723C56.7989 6.20764 59.1973 3.52551 61.6032 0.850865C62.0814 0.320418 61.1997 0.0215742 60.8187 -0.00083903C60.1089 -0.0381945 59.3841 0.26812 58.9134 0.783625V0.791096Z" fill="#F69F1E"/>
<path d="M55.5736 2.69686C50.6273 13.8512 45.9052 25.1176 41.4372 36.4737C40.167 39.6937 38.9192 42.9212 37.6864 46.1562C37.4473 46.7763 38.6129 46.8062 38.9341 46.7763C39.5393 46.709 40.3388 46.4177 40.5779 45.7976C44.919 34.3892 49.4916 23.0705 54.3109 11.8564C55.6782 8.67373 57.0604 5.50599 58.4651 2.33825C58.7341 1.72562 57.5087 1.68826 57.2173 1.71815C56.5823 1.79286 55.85 2.08423 55.5736 2.69686Z" fill="#F69F1E"/>
<path d="M37.3583 45.4756C35.3185 48.5014 33.1293 51.4077 30.9924 54.3662C30.6113 54.8892 31.3137 55.1581 31.7321 55.1731C32.3821 55.1955 33.1218 54.9415 33.5402 54.426C35.834 51.587 37.9186 48.5612 39.9584 45.5354C40.3245 44.99 39.6446 44.7285 39.2038 44.7136C38.5911 44.6986 37.7244 44.9302 37.3583 45.4756Z" fill="#F69F1E"/>
<path d="M28.0115 38.6475C28.6914 44.7215 29.1995 50.8478 30.111 56.8993C30.253 57.8407 32.9278 57.1683 32.8531 56.1672C32.3899 50.0633 31.5232 43.9744 30.8358 37.8929C30.7312 36.959 27.8919 37.5866 28.0115 38.6475Z" fill="#F69F1E"/>
<path d="M34.7587 55.705C36.0214 54.547 37.329 53.4413 38.6813 52.3879C40.0337 51.3344 41.4234 50.4454 42.8356 49.4069C43.254 49.0931 43.1718 48.615 42.7011 48.4581C42.1034 48.2564 41.3637 48.4581 40.8407 48.7644C39.294 49.6609 37.837 50.7816 36.4249 51.8724C35.0127 52.9631 33.7276 54.0614 32.45 55.2343C32.293 55.3763 32.0988 55.6228 32.166 55.8544C32.2333 56.0861 32.5172 56.2056 32.7264 56.2504C33.3764 56.3924 34.2656 56.1608 34.7662 55.705H34.7587Z" fill="#F69F1E"/>
<path d="M37.3503 51.379C38.2394 50.5273 39.136 49.6831 40.0251 48.8239C40.1671 48.682 40.3464 48.4728 40.2866 48.2487C40.2268 48.0245 39.9653 47.9199 39.7711 47.8826C39.4423 47.8228 39.0912 47.8452 38.7773 47.9423C38.4635 48.0395 38.1273 48.159 37.8882 48.3906C36.9841 49.2348 36.0875 50.0866 35.1909 50.9383C35.0415 51.0802 34.8622 51.2969 34.922 51.521C34.9817 51.7451 35.2507 51.8572 35.445 51.8946C35.7737 51.9543 36.1324 51.9319 36.4536 51.8348C36.7749 51.7377 37.1112 51.6107 37.3503 51.379Z" fill="#F69F1E"/>
<path d="M33.9666 52.776L33.6976 52.9105C33.3987 53.0599 33.8919 52.8134 33.6528 52.9329L35.2517 53.7024C36.746 52.0737 38.3001 50.5048 39.8841 48.9583C40.0261 48.8163 40.2054 48.6071 40.1457 48.383C40.0859 48.1589 39.8244 48.0543 39.6301 48.0169C39.0249 47.9049 38.203 48.0842 37.7398 48.525C36.1334 50.0416 34.5942 51.6329 33.1073 53.2691C32.9878 53.4036 32.7636 53.6277 32.8458 53.8444C32.9131 54.0237 33.0625 54.1133 33.2418 54.1731C33.8246 54.3599 34.4971 54.1731 35.0126 53.8817C35.2143 53.7697 35.4161 53.6725 35.6103 53.5679C35.9765 53.3737 36.3949 52.7835 35.842 52.5295C35.2368 52.2605 34.512 52.4996 33.9591 52.776H33.9666Z" fill="#F69F1E"/>
<path d="M38.8824 50.3777C39.4652 49.4438 40.048 48.51 40.6083 47.5611C40.713 47.3743 40.7578 47.1801 40.6083 47.0008C40.4589 46.8215 40.1003 46.7617 39.8761 46.7617C39.5175 46.7617 39.1439 46.8215 38.8151 46.9709C38.5462 47.0904 38.2548 47.2473 38.0904 47.5014C37.4852 48.4278 36.9099 49.3766 36.3271 50.318C36.215 50.5047 36.1776 50.7065 36.3271 50.8858C36.4765 51.0651 36.8426 51.1248 37.0668 51.1248C37.4329 51.1248 37.8139 51.0651 38.1427 50.9082C38.4117 50.7886 38.718 50.6317 38.8824 50.3703V50.3777Z" fill="#F69F1E"/>
<path d="M38.4871 48.6066C38.8906 49.0997 39.2941 49.5928 39.7125 50.0784C39.7947 50.1606 39.8993 50.2204 40.0188 50.2428C40.1533 50.2951 40.2953 50.3175 40.4447 50.3175C40.624 50.3175 40.7959 50.3025 40.9677 50.2652C41.1545 50.2353 41.3338 50.183 41.5057 50.1083L41.812 49.9514C41.9764 49.8543 42.1184 49.7347 42.2304 49.5779L42.3201 49.3836C42.35 49.2491 42.3201 49.1296 42.223 49.025C41.8344 48.5244 41.431 48.0313 41.035 47.5457C40.9453 47.4561 40.8482 47.4038 40.7286 47.3814C40.5941 47.3291 40.4447 47.3066 40.2953 47.3066C40.116 47.3066 39.9366 47.3216 39.7648 47.3589C39.578 47.3888 39.3987 47.4411 39.2194 47.5158L38.913 47.6727C38.7486 47.7698 38.6067 47.8969 38.4871 48.0463L38.39 48.248C38.3601 48.39 38.39 48.5095 38.4871 48.6141V48.6066Z" fill="#F69F1E"/>
<path d="M3.73628 37.5413L0.269419 41.0079C0.127457 41.1499 -0.0518635 41.3516 0.00790996 41.5757C0.0676834 41.7849 0.329192 41.9045 0.515984 41.9343C0.837266 41.9941 1.18096 41.9717 1.49477 41.8746C1.80858 41.7775 2.14481 41.6654 2.36896 41.4338L5.84329 37.9672C5.98525 37.8252 6.16457 37.6235 6.1048 37.3994C6.04503 37.1902 5.78352 37.0707 5.59673 37.0408C5.27544 36.981 4.93175 37.0034 4.61794 37.1005C4.30413 37.1977 3.9679 37.3097 3.74375 37.5413H3.73628Z" fill="#F69F1E"/>
<path d="M14.7487 43.6607L8.42762 49.9888C8.28566 50.1307 8.10634 50.3324 8.16611 50.564C8.22589 50.7732 8.4874 50.8928 8.68166 50.9301C9.27192 51.0422 10.1162 50.8704 10.5571 50.4296L16.8856 44.1015C17.0275 43.9596 17.2068 43.7504 17.1471 43.5263C17.0873 43.3096 16.8258 43.1975 16.6315 43.1602C16.0413 43.0481 15.1895 43.22 14.7487 43.6682V43.6607Z" fill="#F69F1E"/>
<path d="M36.9846 59.5814C35.012 61.7555 33.0395 63.937 31.0745 66.1111C30.9325 66.2606 30.7457 66.4548 30.813 66.6864C30.8727 66.9031 31.1417 67.0151 31.3285 67.0525C31.8964 67.1571 32.8004 67.0002 33.2188 66.5445C35.1988 64.3704 37.1714 62.1888 39.1439 60.0147C39.2859 59.8578 39.4726 59.6711 39.4129 59.432C39.3531 59.2153 39.0841 59.0958 38.8899 59.0584C38.3145 58.9538 37.403 59.1107 36.9846 59.5665V59.5814Z" fill="#F69F1E"/>
<path d="M55.9483 66.3055C53.9758 68.2106 52.0108 70.1157 50.0382 72.0208C49.8963 72.1628 49.7095 72.372 49.7693 72.5961C49.829 72.8203 50.098 72.9323 50.2923 72.9622C50.8975 73.0743 51.7268 72.895 52.1901 72.4542C54.1701 70.549 56.1426 68.6439 58.1151 66.7388C58.2646 66.5968 58.4439 66.3802 58.3841 66.156C58.3243 65.9319 58.0554 65.8198 57.8611 65.7825C57.2484 65.6704 56.4116 65.8497 55.9483 66.298V66.3055Z" fill="#F69F1E"/>
</g>
<defs>
<clipPath id="clip0_862_17566">
<rect width="62" height="73" fill="white"/>
</clipPath>
</defs>
</svg>
